<mxfile host="app.diagrams.net" agent="Mozilla/5.0 (Windows NT 10.0; Win64; x64) AppleWebKit/537.36 (KHTML, like Gecko) Chrome/132.0.0.0 Safari/537.36" version="24.8.3">
  <diagram name="Page-1" id="ktZyGWWc3mT4UT_Lg43B">
    <mxGraphModel dx="1246" dy="420" grid="1" gridSize="10" guides="1" tooltips="1" connect="1" arrows="1" fold="1" page="1" pageScale="1" pageWidth="827" pageHeight="1169" math="0" shadow="0">
      <root>
        <mxCell id="0" />
        <mxCell id="1" parent="0" />
        <mxCell id="YZzz2mC7PiK3C6qNzxC4-21" style="edgeStyle=none;rounded=0;orthogonalLoop=1;jettySize=auto;html=1;" parent="1" source="YZzz2mC7PiK3C6qNzxC4-1" edge="1">
          <mxGeometry relative="1" as="geometry">
            <mxPoint x="312.04999999999995" y="60" as="targetPoint" />
          </mxGeometry>
        </mxCell>
        <mxCell id="YZzz2mC7PiK3C6qNzxC4-24" value="internet" style="edgeLabel;html=1;align=center;verticalAlign=middle;resizable=0;points=[];" parent="YZzz2mC7PiK3C6qNzxC4-21" vertex="1" connectable="0">
          <mxGeometry x="0.5333" relative="1" as="geometry">
            <mxPoint y="-17" as="offset" />
          </mxGeometry>
        </mxCell>
        <mxCell id="YZzz2mC7PiK3C6qNzxC4-1" value="" style="sketch=0;aspect=fixed;pointerEvents=1;shadow=0;dashed=0;html=1;strokeColor=none;labelPosition=center;verticalLabelPosition=bottom;verticalAlign=top;align=center;fillColor=#00188D;shape=mxgraph.mscae.enterprise.router" parent="1" vertex="1">
          <mxGeometry x="280" y="90" width="64.1" height="50" as="geometry" />
        </mxCell>
        <mxCell id="YZzz2mC7PiK3C6qNzxC4-20" style="edgeStyle=none;rounded=0;orthogonalLoop=1;jettySize=auto;html=1;entryX=0.25;entryY=0;entryDx=0;entryDy=0;" parent="1" source="YZzz2mC7PiK3C6qNzxC4-2" target="YZzz2mC7PiK3C6qNzxC4-8" edge="1">
          <mxGeometry relative="1" as="geometry">
            <mxPoint x="530" y="290" as="targetPoint" />
          </mxGeometry>
        </mxCell>
        <mxCell id="YZzz2mC7PiK3C6qNzxC4-22" style="edgeStyle=none;rounded=0;orthogonalLoop=1;jettySize=auto;html=1;" parent="1" source="YZzz2mC7PiK3C6qNzxC4-2" edge="1">
          <mxGeometry relative="1" as="geometry">
            <mxPoint x="326.93000000000006" y="390" as="targetPoint" />
          </mxGeometry>
        </mxCell>
        <mxCell id="YZzz2mC7PiK3C6qNzxC4-25" style="edgeStyle=none;rounded=0;orthogonalLoop=1;jettySize=auto;html=1;" parent="1" source="YZzz2mC7PiK3C6qNzxC4-2" edge="1">
          <mxGeometry relative="1" as="geometry">
            <mxPoint x="130" y="370" as="targetPoint" />
          </mxGeometry>
        </mxCell>
        <mxCell id="YZzz2mC7PiK3C6qNzxC4-2" value="&lt;b&gt;router&lt;/b&gt;" style="image;html=1;image=img/lib/clip_art/networking/Switch_128x128.png" parent="1" vertex="1">
          <mxGeometry x="286.93" y="210" width="80" height="80" as="geometry" />
        </mxCell>
        <mxCell id="YZzz2mC7PiK3C6qNzxC4-6" value="&lt;b&gt;laptop&lt;/b&gt;" style="verticalLabelPosition=bottom;sketch=0;aspect=fixed;html=1;verticalAlign=top;strokeColor=none;align=center;outlineConnect=0;shape=mxgraph.citrix.laptop_2;" parent="1" vertex="1">
          <mxGeometry x="280" y="400" width="93.87" height="70" as="geometry" />
        </mxCell>
        <mxCell id="YZzz2mC7PiK3C6qNzxC4-7" value="&lt;b&gt;Desktop&lt;/b&gt;" style="verticalLabelPosition=bottom;sketch=0;aspect=fixed;html=1;verticalAlign=top;strokeColor=none;align=center;outlineConnect=0;shape=mxgraph.citrix.desktop;" parent="1" vertex="1">
          <mxGeometry x="60" y="380" width="72.65" height="80" as="geometry" />
        </mxCell>
        <mxCell id="YZzz2mC7PiK3C6qNzxC4-8" value="&lt;b&gt;printer&lt;/b&gt;" style="image;html=1;image=img/lib/clip_art/computers/Printer_128x128.png" parent="1" vertex="1">
          <mxGeometry x="610" y="380" width="80" height="80" as="geometry" />
        </mxCell>
        <mxCell id="YZzz2mC7PiK3C6qNzxC4-26" style="edgeStyle=orthogonalEdgeStyle;rounded=0;orthogonalLoop=1;jettySize=auto;html=1;entryX=0.363;entryY=-0.008;entryDx=0;entryDy=0;entryPerimeter=0;" parent="1" source="YZzz2mC7PiK3C6qNzxC4-1" target="YZzz2mC7PiK3C6qNzxC4-2" edge="1">
          <mxGeometry relative="1" as="geometry" />
        </mxCell>
      </root>
    </mxGraphModel>
  </diagram>
</mxfile>
